<?xml version="1.0" encoding="UTF-8" standalone="no"?>
<svg
   xmlns:dc="http://purl.org/dc/elements/1.1/"
   xmlns:cc="http://creativecommons.org/ns#"
   xmlns:rdf="http://www.w3.org/1999/02/22-rdf-syntax-ns#"
   xmlns:svg="http://www.w3.org/2000/svg"
   xmlns="http://www.w3.org/2000/svg"
   xmlns:sodipodi="http://sodipodi.sourceforge.net/DTD/sodipodi-0.dtd"
   xmlns:inkscape="http://www.inkscape.org/namespaces/inkscape"
   role="img"
   viewBox="0 0 24 24"
   version="1.1"
   id="svg6"
   sodipodi:docname="django.svg"
   inkscape:version="1.0.2 (e86c870879, 2021-01-15)">
  <metadata
     id="metadata12">
    <rdf:RDF>
      <cc:Work
         rdf:about="">
        <dc:format>image/svg+xml</dc:format>
        <dc:type
           rdf:resource="http://purl.org/dc/dcmitype/StillImage" />
      </cc:Work>
    </rdf:RDF>
  </metadata>
  <defs
     id="defs10" />
  <sodipodi:namedview
     pagecolor="#ffffff"
     bordercolor="#666666"
     borderopacity="1"
     objecttolerance="10"
     gridtolerance="10"
     guidetolerance="10"
     inkscape:pageopacity="0"
     inkscape:pageshadow="2"
     inkscape:window-width="785"
     inkscape:window-height="480"
     id="namedview8"
     showgrid="false"
     inkscape:zoom="11.890485"
     inkscape:cx="12"
     inkscape:cy="12"
     inkscape:window-x="0"
     inkscape:window-y="0"
     inkscape:window-maximized="0"
     inkscape:current-layer="svg6" />
  <title
     id="title2">Django</title>
  <path
     d="M11.146 0h3.924v18.166c-2.013.382-3.491.535-5.096.535-4.791 0-7.288-2.166-7.288-6.32 0-4.002 2.65-6.6 6.753-6.6.637 0 1.121.05 1.707.203zm0 9.143a3.894 3.894 0 00-1.325-.204c-1.988 0-3.134 1.223-3.134 3.365 0 2.09 1.096 3.236 3.109 3.236.433 0 .79-.025 1.35-.102V9.142zM21.314 6.06v9.098c0 3.134-.229 4.638-.917 5.937-.637 1.249-1.478 2.039-3.211 2.905l-3.644-1.733c1.733-.815 2.574-1.53 3.109-2.625.561-1.121.739-2.421.739-5.835V6.059h3.924zM17.39.021h3.924v4.026H17.39z"
     id="path4"
     style="fill:#a9a9a9" />
</svg>
