<?xml version="1.0" encoding="UTF-8" standalone="no"?>
<svg
   xmlns:dc="http://purl.org/dc/elements/1.1/"
   xmlns:cc="http://creativecommons.org/ns#"
   xmlns:rdf="http://www.w3.org/1999/02/22-rdf-syntax-ns#"
   xmlns:svg="http://www.w3.org/2000/svg"
   xmlns="http://www.w3.org/2000/svg"
   xmlns:sodipodi="http://sodipodi.sourceforge.net/DTD/sodipodi-0.dtd"
   xmlns:inkscape="http://www.inkscape.org/namespaces/inkscape"
   role="img"
   viewBox="0 0 24 24"
   version="1.1"
   id="svg6"
   sodipodi:docname="unity.svg"
   inkscape:version="1.0.2 (e86c870879, 2021-01-15)">
  <metadata
     id="metadata12">
    <rdf:RDF>
      <cc:Work
         rdf:about="">
        <dc:format>image/svg+xml</dc:format>
        <dc:type
           rdf:resource="http://purl.org/dc/dcmitype/StillImage" />
      </cc:Work>
    </rdf:RDF>
  </metadata>
  <defs
     id="defs10" />
  <sodipodi:namedview
     pagecolor="#ffffff"
     bordercolor="#666666"
     borderopacity="1"
     objecttolerance="10"
     gridtolerance="10"
     guidetolerance="10"
     inkscape:pageopacity="0"
     inkscape:pageshadow="2"
     inkscape:window-width="785"
     inkscape:window-height="480"
     id="namedview8"
     showgrid="false"
     inkscape:zoom="11.890485"
     inkscape:cx="12"
     inkscape:cy="12"
     inkscape:window-x="0"
     inkscape:window-y="0"
     inkscape:window-maximized="0"
     inkscape:current-layer="svg6" />
  <title
     id="title2">Unity</title>
  <path
     d="m12.9288 4.2939 3.7997 2.1929c.1366.077.1415.2905 0 .3675l-4.515 2.6076a.4192.4192 0 0 1-.4246 0L7.274 6.8543c-.139-.0745-.1415-.293 0-.3675l3.7972-2.193V0L1.3758 5.5977V16.793l3.7177-2.1456v-4.3858c-.0025-.1565.1813-.2682.318-.1838l4.5148 2.6076a.4252.4252 0 0 1 .2136.3676v5.2127c.0025.1565-.1813.2682-.3179.1838l-3.7996-2.1929-3.7178 2.1457L12 24l9.6954-5.5977-3.7178-2.1457-3.7996 2.1929c-.1341.082-.3229-.0248-.3179-.1838V13.053c0-.1565.087-.2956.2136-.3676l4.5149-2.6076c.134-.082.3228.0224.3179.1838v4.3858l3.7177 2.1456V5.5977L12.9288 0Z"
     id="path4"
     style="fill:#a9a9a9" />
</svg>
